solid ASCII
  facet normal 1.736482e-01 9.848078e-01 2.128102e-17
    outer loop
      vertex   0.000000e+00 8.816349e-02 5.000000e-01
      vertex   5.000000e-01 8.741914e-17 5.000000e-01
      vertex   -3.496765e-16 8.816349e-02 -5.000000e-01
    endloop
  endfacet
  facet normal 1.736482e-01 9.848078e-01 6.833477e-17
    outer loop
      vertex   -3.496765e-16 8.816349e-02 -5.000000e-01
      vertex   5.000000e-01 8.741914e-17 5.000000e-01
      vertex   5.000000e-01 1.748383e-16 -5.000000e-01
    endloop
  endfacet
  facet normal -1.736482e-01 9.848078e-01 0.000000e+00
    outer loop
      vertex   -5.000000e-01 8.741914e-17 5.000000e-01
      vertex   0.000000e+00 8.816349e-02 5.000000e-01
      vertex   -5.000000e-01 8.741914e-17 -5.000000e-01
    endloop
  endfacet
  facet normal -1.736482e-01 9.848078e-01 1.366695e-16
    outer loop
      vertex   -5.000000e-01 8.741914e-17 -5.000000e-01
      vertex   0.000000e+00 8.816349e-02 5.000000e-01
      vertex   -3.496765e-16 8.816349e-02 -5.000000e-01
    endloop
  endfacet
  facet normal -1.736482e-01 -9.848078e-01 -2.128102e-17
    outer loop
      vertex   0.000000e+00 -8.816349e-02 5.000000e-01
      vertex   -5.000000e-01 8.741914e-17 5.000000e-01
      vertex   -3.496765e-16 -8.816349e-02 -5.000000e-01
    endloop
  endfacet
  facet normal -1.736482e-01 -9.848078e-01 0.000000e+00
    outer loop
      vertex   -3.496765e-16 -8.816349e-02 -5.000000e-01
      vertex   -5.000000e-01 8.741914e-17 5.000000e-01
      vertex   -5.000000e-01 8.741914e-17 -5.000000e-01
    endloop
  endfacet
  facet normal 1.736482e-01 -9.848078e-01 -1.150093e-16
    outer loop
      vertex   5.000000e-01 8.741914e-17 5.000000e-01
      vertex   0.000000e+00 -8.816349e-02 5.000000e-01
      vertex   5.000000e-01 1.748383e-16 -5.000000e-01
    endloop
  endfacet
  facet normal 1.736482e-01 -9.848078e-01 -1.503365e-16
    outer loop
      vertex   5.000000e-01 1.748383e-16 -5.000000e-01
      vertex   0.000000e+00 -8.816349e-02 5.000000e-01
      vertex   -3.496765e-16 -8.816349e-02 -5.000000e-01
    endloop
  endfacet
  facet normal -3.330669e-16 1.888916e-15 -1.000000e+00
    outer loop
      vertex   5.000000e-01 1.748383e-16 -5.000000e-01
      vertex   -3.496765e-16 -8.816349e-02 -5.000000e-01
      vertex   -3.496765e-16 8.816349e-02 -5.000000e-01
    endloop
  endfacet
  facet normal 0.000000e+00 1.888916e-15 -1.000000e+00
    outer loop
      vertex   -3.496765e-16 8.816349e-02 -5.000000e-01
      vertex   -3.496765e-16 -8.816349e-02 -5.000000e-01
      vertex   -5.000000e-01 8.741914e-17 -5.000000e-01
    endloop
  endfacet
  facet normal 1.110223e-16 1.398079e-31 1.000000e+00
    outer loop
      vertex   0.000000e+00 -8.816349e-02 5.000000e-01
      vertex   5.000000e-01 8.741914e-17 5.000000e-01
      vertex   -5.000000e-01 8.741914e-17 5.000000e-01
    endloop
  endfacet
  facet normal 1.110223e-16 -1.398079e-31 1.000000e+00
    outer loop
      vertex   -5.000000e-01 8.741914e-17 5.000000e-01
      vertex   5.000000e-01 8.741914e-17 5.000000e-01
      vertex   0.000000e+00 8.816349e-02 5.000000e-01
    endloop
  endfacet
endsolid
